<svg clip-rule="evenodd" fill-rule="evenodd" image-rendering="optimizeQuality" shape-rendering="geometricPrecision" text-rendering="geometricPrecision" viewBox="0 0 127000 127000" xmlns="http://www.w3.org/2000/svg"><g id="&#x56FE;&#x5C42;_x0020_1"><path d="m.001.001h127000v127000h-127000z" fill="none"/><g id="_106741696" fill="#191919"><path id="_108409248" d="m105756 75321h23v40010c0 1574-1284 2858-2857 2858h-25846c-1574 0-2858-1284-2858-2858v-21754c0-1574-1283-2858-2856-2858h-15720c-1574 0-2858 1284-2858 2858v21754c0 1574-1283 2858-2856 2858h-25846c-1574 0-2858-1284-2858-2858v-40010h-2l21077-21434 19039-19361c558-567 1242-855 2038-855 795 0 1479 288 2037 855l19039 19361z"/><path id="_107017168" d="m67588 10519 29504 30005 24019 24428c1649 1677 2105 4047 1195 6215-909 2170-2918 3507-5270 3507h-143c-1591 0-2960-574-4076-1709l-23904-24311-21508-21874c-1116-1134-2485-1709-4075-1709-1592 0-2961 575-4076 1709l-21511 21874c-7967 8104-15936 16208-23903 24311-78 80-156 149-232 208-995 877-2300 1410-3731 1410-3116 0-5644-2529-5644-5646 0-1721 771-3263 1988-4298l23711-24115 29505-30005c1115-1135 2484-1709 4076-1709 1590 0 2959 575 4075 1709z"/></g></g></svg>